ffmpeg started on 2025-05-29 at 16:36:26
Report written to "D:\Convert\FFMetrics\reports\psnr_report-6.txt"
Log level: 32
Command line:
ffmpeg -hide_banner -nostdin -i "G:\\\xc0\xed\xe8\xec\xe5\\\xce\xed\xe3\xee\xe8\xed\xe3\xe8\\!_36_\xce\xf1\xe5\xed\xfc_2024\\JamClub\\\xd2\xfb - \xe3\xee\xf0\xed\xe8\xf7\xed\xe0\xff\\JamClub_Kimi_wa_Meido_sama_10_1080p_HEVC.mkv" -i "G:\\\xc0\xed\xe8\xec\xe5\\\xce\xed\xe3\xee\xe8\xed\xe3\xe8\\!_36_\xce\xf1\xe5\xed\xfc_2024\\JamClub\\\xd2\xfb - \xe3\xee\xf0\xed\xe8\xf7\xed\xe0\xff\\JamClub_Kimi_wa_Meido_sama_10_1080p.mp4" -lavfi "[0:v]settb=AVTB,setpts=PTS-STARTPTS,format=pix_fmts=yuv420p10,fps=24000/1001,scale=1920:1080:flags=bicubic[main];[1:v]settb=AVTB,setpts=PTS-STARTPTS,format=pix_fmts=yuv420p,fps=24000/1001,scale=1920:1080:flags=bicubic[ref];[main][ref]psnr=eof_action=endall:stats_file='D\\:/Convert/FFMetrics/logs/psnr_logfile-6.txt'" -f null -
Input #0, matroska,webm, from 'G:\Аниме\Онгоинги\!_36_Осень_2024\JamClub\Ты - горничная\JamClub_Kimi_wa_Meido_sama_10_1080p_HEVC.mkv':
  Metadata:
    COMPATIBLE_BRANDS: isomiso2avc1mp41
    MAJOR_BRAND     : isom
    MINOR_VERSION   : 512
    ENCODER         : Lavf61.7.100
  Duration: 00:23:22.22, start: -0.001000, bitrate: 1887 kb/s
  Stream #0:0: Video: hevc (Main 10), yuv420p10le(tv, bt709, progressive), 1920x1080 [SAR 1:1 DAR 16:9], 23.98 fps, 23.98 tbr, 1k tbn (default)
      Metadata:
        HANDLER_NAME    : VideoHandler
        VENDOR_ID       : [0][0][0][0]
        ENCODER         : Lavc61.19.100 libx265
        BPS             : 1689821
        DURATION        : 00:23:22.150708333
        NUMBER_OF_FRAMES: 33618
        NUMBER_OF_BYTES : 296172957
        _STATISTICS_WRITING_APP: mkvpropedit v66.0.0 ('Josie') 64-bit
        _STATISTICS_WRITING_DATE_UTC: 2025-05-29 11:14:55
        _STATISTICS_TAGS: BPS DURATION NUMBER_OF_FRAMES NUMBER_OF_BYTES
  Stream #0:1(eng): Audio: aac (LC), 48000 Hz, stereo, fltp (default)
      Metadata:
        HANDLER_NAME    : SoundHandler
        VENDOR_ID       : [0][0][0][0]
        ENCODER         : Lavc61.19.100 aac
        BPS             : 193875
        DURATION        : 00:23:22.179000000
        NUMBER_OF_FRAMES: 65728
        NUMBER_OF_BYTES : 33981030
        _STATISTICS_WRITING_APP: mkvpropedit v66.0.0 ('Josie') 64-bit
        _STATISTICS_WRITING_DATE_UTC: 2025-05-29 11:14:55
        _STATISTICS_TAGS: BPS DURATION NUMBER_OF_FRAMES NUMBER_OF_BYTES
Input #1, mov,mp4,m4a,3gp,3g2,mj2, from 'G:\Аниме\Онгоинги\!_36_Осень_2024\JamClub\Ты - горничная\JamClub_Kimi_wa_Meido_sama_10_1080p.mp4':
  Metadata:
    major_brand     : isom
    minor_version   : 512
    compatible_brands: isomiso2avc1mp41
    encoder         : Lavf60.16.100
  Duration: 00:23:22.20, start: 0.000000, bitrate: 4314 kb/s
  Stream #1:0[0x1](und): Video: h264 (High) (avc1 / 0x31637661), yuv420p(progressive), 1920x1080 [SAR 1:1 DAR 16:9], 4116 kb/s, 23.98 fps, 23.98 tbr, 90k tbn (default)
      Metadata:
        handler_name    : VideoHandler
        vendor_id       : [0][0][0][0]
  Stream #1:1[0x2](eng): Audio: aac (LC) (mp4a / 0x6134706D), 48000 Hz, stereo, fltp, 191 kb/s (default)
      Metadata:
        handler_name    : SoundHandler
        vendor_id       : [0][0][0][0]
Stream mapping:
  Stream #0:0 (hevc) -> settb:default
  Stream #1:0 (h264) -> settb:default
  psnr:default -> Stream #0:0 (wrapped_avframe)
  Stream #0:1 -> #0:1 (aac (native) -> pcm_s16le (native))
Output #0, null, to 'pipe:':
  Metadata:
    COMPATIBLE_BRANDS: isomiso2avc1mp41
    MAJOR_BRAND     : isom
    MINOR_VERSION   : 512
    encoder         : Lavf61.7.100
  Stream #0:0: Video: wrapped_avframe, yuv420p10le(tv, bt709, progressive), 1920x1080 [SAR 1:1 DAR 16:9], q=2-31, 200 kb/s, 23.98 fps, 23.98 tbn
      Metadata:
        encoder         : Lavc61.19.100 wrapped_avframe
  Stream #0:1(eng): Audio: pcm_s16le, 48000 Hz, stereo, s16, 1536 kb/s (default)
      Metadata:
        HANDLER_NAME    : SoundHandler
        VENDOR_ID       : [0][0][0][0]
        _STATISTICS_TAGS: BPS DURATION NUMBER_OF_FRAMES NUMBER_OF_BYTES
        BPS             : 193875
        DURATION        : 00:23:22.179000000
        NUMBER_OF_FRAMES: 65728
        NUMBER_OF_BYTES : 33981030
        _STATISTICS_WRITING_APP: mkvpropedit v66.0.0 ('Josie') 64-bit
        _STATISTICS_WRITING_DATE_UTC: 2025-05-29 11:14:55
        encoder         : Lavc61.19.100 pcm_s16le
frame=  110 fps=0.0 q=-0.0 size=N/A time=00:00:04.58 bitrate=N/A speed=8.97x    frame=  269 fps=261 q=-0.0 size=N/A time=00:00:11.21 bitrate=N/A speed=10.9x    frame=  464 fps=301 q=-0.0 size=N/A time=00:00:19.35 bitrate=N/A speed=12.6x    frame=  702 fps=340 q=-0.0 size=N/A time=00:00:29.27 bitrate=N/A speed=14.2x    frame=  955 fps=371 q=-0.0 size=N/A time=00:00:39.83 bitrate=N/A speed=15.5x    frame= 1214 fps=392 q=-0.0 size=N/A time=00:00:50.63 bitrate=N/A speed=16.4x    frame= 1480 fps=411 q=-0.0 size=N/A time=00:01:01.72 bitrate=N/A speed=17.1x    frame= 1747 fps=424 q=-0.0 size=N/A time=00:01:12.86 bitrate=N/A speed=17.7x    frame= 2010 fps=434 q=-0.0 size=N/A time=00:01:23.83 bitrate=N/A speed=18.1x    frame= 2274 fps=441 q=-0.0 size=N/A time=00:01:34.84 bitrate=N/A speed=18.4x    frame= 2495 fps=441 q=-0.0 size=N/A time=00:01:44.06 bitrate=N/A speed=18.4x    frame= 2683 fps=434 q=-0.0 size=N/A time=00:01:51.90 bitrate=N/A speed=18.1x    frame= 2939 fps=438 q=-0.0 size=N/A time=00:02:02.58 bitrate=N/A speed=18.3x    frame= 3156 fps=437 q=-0.0 size=N/A time=00:02:11.63 bitrate=N/A speed=18.2x    frame= 3362 fps=435 q=-0.0 size=N/A time=00:02:20.22 bitrate=N/A speed=18.1x    frame= 3555 fps=431 q=-0.0 size=N/A time=00:02:28.27 bitrate=N/A speed=  18x    frame= 3716 fps=424 q=-0.0 size=N/A time=00:02:34.98 bitrate=N/A speed=17.7x    frame= 3809 fps=411 q=-0.0 size=N/A time=00:02:38.86 bitrate=N/A speed=17.1x    frame= 3925 fps=400 q=-0.0 size=N/A time=00:02:43.70 bitrate=N/A speed=16.7x    frame= 4069 fps=394 q=-0.0 size=N/A time=00:02:49.71 bitrate=N/A speed=16.4x    frame= 4172 fps=385 q=-0.0 size=N/A time=00:02:54.00 bitrate=N/A speed=  16x    frame= 4324 fps=381 q=-0.0 size=N/A time=00:03:00.34 bitrate=N/A speed=15.9x    frame= 4493 fps=378 q=-0.0 size=N/A time=00:03:07.39 bitrate=N/A speed=15.8x    frame= 4708 fps=380 q=-0.0 size=N/A time=00:03:16.36 bitrate=N/A speed=15.9x    frame= 4905 fps=380 q=-0.0 size=N/A time=00:03:24.57 bitrate=N/A speed=15.9x    frame= 5095 fps=380 q=-0.0 size=N/A time=00:03:32.50 bitrate=N/A speed=15.8x    frame= 5348 fps=384 q=-0.0 size=N/A time=00:03:43.05 bitrate=N/A speed=  16x    frame= 5579 fps=386 q=-0.0 size=N/A time=00:03:52.69 bitrate=N/A speed=16.1x    frame= 5845 fps=391 q=-0.0 size=N/A time=00:04:03.78 bitrate=N/A speed=16.3x    frame= 6118 fps=395 q=-0.0 size=N/A time=00:04:15.17 bitrate=N/A speed=16.5x    frame= 6376 fps=399 q=-0.0 size=N/A time=00:04:25.93 bitrate=N/A speed=16.6x    frame= 6618 fps=401 q=-0.0 size=N/A time=00:04:36.02 bitrate=N/A speed=16.7x    frame= 6822 fps=400 q=-0.0 size=N/A time=00:04:44.53 bitrate=N/A speed=16.7x    frame= 7077 fps=403 q=-0.0 size=N/A time=00:04:55.16 bitrate=N/A speed=16.8x    frame= 7341 fps=406 q=-0.0 size=N/A time=00:05:06.18 bitrate=N/A speed=16.9x    frame= 7562 fps=407 q=-0.0 size=N/A time=00:05:15.39 bitrate=N/A speed=  17x    frame= 7817 fps=409 q=-0.0 size=N/A time=00:05:26.03 bitrate=N/A speed=17.1x    frame= 8071 fps=412 q=-0.0 size=N/A time=00:05:36.62 bitrate=N/A speed=17.2x    frame= 8327 fps=414 q=-0.0 size=N/A time=00:05:47.30 bitrate=N/A speed=17.3x    frame= 8575 fps=416 q=-0.0 size=N/A time=00:05:57.64 bitrate=N/A speed=17.3x    frame= 8850 fps=418 q=-0.0 size=N/A time=00:06:09.11 bitrate=N/A speed=17.5x    frame= 9119 fps=421 q=-0.0 size=N/A time=00:06:20.33 bitrate=N/A speed=17.5x    frame= 9386 fps=423 q=-0.0 size=N/A time=00:06:31.47 bitrate=N/A speed=17.6x    frame= 9646 fps=425 q=-0.0 size=N/A time=00:06:42.31 bitrate=N/A speed=17.7x    frame= 9913 fps=427 q=-0.0 size=N/A time=00:06:53.45 bitrate=N/A speed=17.8x    frame=10176 fps=429 q=-0.0 size=N/A time=00:07:04.42 bitrate=N/A speed=17.9x    frame=10438 fps=430 q=-0.0 size=N/A time=00:07:15.35 bitrate=N/A speed=  18x    frame=10688 fps=432 q=-0.0 size=N/A time=00:07:25.77 bitrate=N/A speed=  18x    frame=10899 fps=431 q=-0.0 size=N/A time=00:07:34.57 bitrate=N/A speed=  18x    frame=11179 fps=433 q=-0.0 size=N/A time=00:07:46.25 bitrate=N/A speed=18.1x    frame=11428 fps=434 q=-0.0 size=N/A time=00:07:56.64 bitrate=N/A speed=18.1x    frame=11708 fps=436 q=-0.0 size=N/A time=00:08:08.32 bitrate=N/A speed=18.2x    frame=11966 fps=438 q=-0.0 size=N/A time=00:08:19.08 bitrate=N/A speed=18.3x    frame=12219 fps=439 q=-0.0 size=N/A time=00:08:29.63 bitrate=N/A speed=18.3x    frame=12408 fps=437 q=-0.0 size=N/A time=00:08:37.51 bitrate=N/A speed=18.2x    frame=12645 fps=438 q=-0.0 size=N/A time=00:08:47.40 bitrate=N/A speed=18.3x    frame=12905 fps=439 q=-0.0 size=N/A time=00:08:58.24 bitrate=N/A speed=18.3x    frame=13148 fps=439 q=-0.0 size=N/A time=00:09:08.38 bitrate=N/A speed=18.3x    frame=13428 fps=441 q=-0.0 size=N/A time=00:09:20.05 bitrate=N/A speed=18.4x    frame=13692 fps=442 q=-0.0 size=N/A time=00:09:31.07 bitrate=N/A speed=18.4x    frame=13959 fps=444 q=-0.0 size=N/A time=00:09:42.20 bitrate=N/A speed=18.5x    frame=14179 fps=443 q=-0.0 size=N/A time=00:09:51.38 bitrate=N/A speed=18.5x    frame=14409 fps=443 q=-0.0 size=N/A time=00:10:00.97 bitrate=N/A speed=18.5x    frame=14646 fps=444 q=-0.0 size=N/A time=00:10:10.86 bitrate=N/A speed=18.5x    frame=14896 fps=444 q=-0.0 size=N/A time=00:10:21.28 bitrate=N/A speed=18.5x    frame=15136 fps=445 q=-0.0 size=N/A time=00:10:31.29 bitrate=N/A speed=18.5x    frame=15390 fps=445 q=-0.0 size=N/A time=00:10:41.89 bitrate=N/A speed=18.6x    frame=15615 fps=445 q=-0.0 size=N/A time=00:10:51.27 bitrate=N/A speed=18.6x    frame=15886 fps=446 q=-0.0 size=N/A time=00:11:02.57 bitrate=N/A speed=18.6x    frame=16168 fps=448 q=-0.0 size=N/A time=00:11:14.34 bitrate=N/A speed=18.7x    frame=16433 fps=449 q=-0.0 size=N/A time=00:11:25.39 bitrate=N/A speed=18.7x    frame=16691 fps=449 q=-0.0 size=N/A time=00:11:36.15 bitrate=N/A speed=18.7x    frame=16957 fps=450 q=-0.0 size=N/A time=00:11:47.24 bitrate=N/A speed=18.8x    frame=17211 fps=451 q=-0.0 size=N/A time=00:11:57.84 bitrate=N/A speed=18.8x    frame=17448 fps=451 q=-0.0 size=N/A time=00:12:07.72 bitrate=N/A speed=18.8x    frame=17690 fps=451 q=-0.0 size=N/A time=00:12:17.82 bitrate=N/A speed=18.8x    frame=17950 fps=452 q=-0.0 size=N/A time=00:12:28.66 bitrate=N/A speed=18.9x    frame=18213 fps=453 q=-0.0 size=N/A time=00:12:39.63 bitrate=N/A speed=18.9x    frame=18444 fps=453 q=-0.0 size=N/A time=00:12:49.26 bitrate=N/A speed=18.9x    frame=18663 fps=452 q=-0.0 size=N/A time=00:12:58.40 bitrate=N/A speed=18.9x    frame=18919 fps=453 q=-0.0 size=N/A time=00:13:09.07 bitrate=N/A speed=18.9x    frame=19150 fps=453 q=-0.0 size=N/A time=00:13:18.71 bitrate=N/A speed=18.9x    frame=19383 fps=453 q=-0.0 size=N/A time=00:13:28.43 bitrate=N/A speed=18.9x    frame=19629 fps=453 q=-0.0 size=N/A time=00:13:38.69 bitrate=N/A speed=18.9x    frame=19862 fps=453 q=-0.0 size=N/A time=00:13:48.41 bitrate=N/A speed=18.9x    frame=20080 fps=453 q=-0.0 size=N/A time=00:13:57.50 bitrate=N/A speed=18.9x    frame=20325 fps=453 q=-0.0 size=N/A time=00:14:07.72 bitrate=N/A speed=18.9x    frame=20541 fps=453 q=-0.0 size=N/A time=00:14:16.73 bitrate=N/A speed=18.9x    frame=20792 fps=453 q=-0.0 size=N/A time=00:14:27.19 bitrate=N/A speed=18.9x    frame=21039 fps=453 q=-0.0 size=N/A time=00:14:37.50 bitrate=N/A speed=18.9x    frame=21286 fps=453 q=-0.0 size=N/A time=00:14:47.80 bitrate=N/A speed=18.9x    frame=21521 fps=454 q=-0.0 size=N/A time=00:14:57.60 bitrate=N/A speed=18.9x    frame=21787 fps=454 q=-0.0 size=N/A time=00:15:08.69 bitrate=N/A speed=18.9x    frame=22039 fps=455 q=-0.0 size=N/A time=00:15:19.20 bitrate=N/A speed=  19x    frame=22298 fps=455 q=-0.0 size=N/A time=00:15:30.01 bitrate=N/A speed=  19x    frame=22535 fps=455 q=-0.0 size=N/A time=00:15:39.89 bitrate=N/A speed=  19x    frame=22782 fps=455 q=-0.0 size=N/A time=00:15:50.19 bitrate=N/A speed=  19x    frame=23040 fps=456 q=-0.0 size=N/A time=00:16:00.96 bitrate=N/A speed=  19x    frame=23296 fps=456 q=-0.0 size=N/A time=00:16:11.63 bitrate=N/A speed=  19x    frame=23551 fps=457 q=-0.0 size=N/A time=00:16:22.27 bitrate=N/A speed=  19x    frame=23819 fps=457 q=-0.0 size=N/A time=00:16:33.45 bitrate=N/A speed=19.1x    frame=24079 fps=458 q=-0.0 size=N/A time=00:16:44.29 bitrate=N/A speed=19.1x    frame=24362 fps=459 q=-0.0 size=N/A time=00:16:56.09 bitrate=N/A speed=19.1x    frame=24625 fps=459 q=-0.0 size=N/A time=00:17:07.06 bitrate=N/A speed=19.2x    frame=24881 fps=459 q=-0.0 size=N/A time=00:17:17.74 bitrate=N/A speed=19.2x    frame=25089 fps=459 q=-0.0 size=N/A time=00:17:26.42 bitrate=N/A speed=19.1x    frame=25345 fps=459 q=-0.0 size=N/A time=00:17:37.09 bitrate=N/A speed=19.2x    frame=25600 fps=460 q=-0.0 size=N/A time=00:17:47.73 bitrate=N/A speed=19.2x    frame=25860 fps=460 q=-0.0 size=N/A time=00:17:58.57 bitrate=N/A speed=19.2x    frame=26130 fps=461 q=-0.0 size=N/A time=00:18:09.83 bitrate=N/A speed=19.2x    frame=26394 fps=461 q=-0.0 size=N/A time=00:18:20.84 bitrate=N/A speed=19.2x    frame=26659 fps=462 q=-0.0 size=N/A time=00:18:31.90 bitrate=N/A speed=19.2x    frame=26912 fps=462 q=-0.0 size=N/A time=00:18:42.45 bitrate=N/A speed=19.3x    frame=27174 fps=462 q=-0.0 size=N/A time=00:18:53.38 bitrate=N/A speed=19.3x    frame=27426 fps=462 q=-0.0 size=N/A time=00:19:03.89 bitrate=N/A speed=19.3x    frame=27689 fps=463 q=-0.0 size=N/A time=00:19:14.86 bitrate=N/A speed=19.3x    frame=27940 fps=463 q=-0.0 size=N/A time=00:19:25.33 bitrate=N/A speed=19.3x    frame=28187 fps=463 q=-0.0 size=N/A time=00:19:35.63 bitrate=N/A speed=19.3x    frame=28445 fps=464 q=-0.0 size=N/A time=00:19:46.43 bitrate=N/A speed=19.3x    frame=28701 fps=464 q=-0.0 size=N/A time=00:19:57.07 bitrate=N/A speed=19.3x    frame=28941 fps=464 q=-0.0 size=N/A time=00:20:07.08 bitrate=N/A speed=19.3x    frame=29209 fps=464 q=-0.0 size=N/A time=00:20:18.25 bitrate=N/A speed=19.4x    frame=29476 fps=465 q=-0.0 size=N/A time=00:20:29.39 bitrate=N/A speed=19.4x    frame=29719 fps=465 q=-0.0 size=N/A time=00:20:39.52 bitrate=N/A speed=19.4x    frame=29981 fps=465 q=-0.0 size=N/A time=00:20:50.45 bitrate=N/A speed=19.4x    frame=30260 fps=466 q=-0.0 size=N/A time=00:21:02.09 bitrate=N/A speed=19.4x    frame=30513 fps=466 q=-0.0 size=N/A time=00:21:12.64 bitrate=N/A speed=19.4x    frame=30774 fps=466 q=-0.0 size=N/A time=00:21:23.53 bitrate=N/A speed=19.4x    frame=31035 fps=467 q=-0.0 size=N/A time=00:21:34.41 bitrate=N/A speed=19.5x    frame=31282 fps=467 q=-0.0 size=N/A time=00:21:44.72 bitrate=N/A speed=19.5x    frame=31487 fps=466 q=-0.0 size=N/A time=00:21:53.27 bitrate=N/A speed=19.4x    frame=31589 fps=464 q=-0.0 size=N/A time=00:21:57.52 bitrate=N/A speed=19.4x    frame=31693 fps=462 q=-0.0 size=N/A time=00:22:01.86 bitrate=N/A speed=19.3x    frame=31809 fps=460 q=-0.0 size=N/A time=00:22:06.70 bitrate=N/A speed=19.2x    frame=31962 fps=459 q=-0.0 size=N/A time=00:22:13.08 bitrate=N/A speed=19.1x    frame=32105 fps=458 q=-0.0 size=N/A time=00:22:19.04 bitrate=N/A speed=19.1x    frame=32241 fps=456 q=-0.0 size=N/A time=00:22:24.71 bitrate=N/A speed=  19x    frame=32377 fps=455 q=-0.0 size=N/A time=00:22:30.39 bitrate=N/A speed=  19x    frame=32478 fps=453 q=-0.0 size=N/A time=00:22:34.60 bitrate=N/A speed=18.9x    frame=32578 fps=451 q=-0.0 size=N/A time=00:22:38.77 bitrate=N/A speed=18.8x    frame=32731 fps=450 q=-0.0 size=N/A time=00:22:45.15 bitrate=N/A speed=18.8x    frame=32876 fps=449 q=-0.0 size=N/A time=00:22:51.20 bitrate=N/A speed=18.7x    frame=33029 fps=448 q=-0.0 size=N/A time=00:22:57.58 bitrate=N/A speed=18.7x    frame=33146 fps=446 q=-0.0 size=N/A time=00:23:02.46 bitrate=N/A speed=18.6x    frame=33293 fps=445 q=-0.0 size=N/A time=00:23:08.59 bitrate=N/A speed=18.6x    frame=33387 fps=443 q=-0.0 size=N/A time=00:23:12.51 bitrate=N/A speed=18.5x    frame=33494 fps=442 q=-0.0 size=N/A time=00:23:16.97 bitrate=N/A speed=18.4x    frame=33596 fps=440 q=-0.0 size=N/A time=00:23:21.23 bitrate=N/A speed=18.4x    [Parsed_psnr_10 @ 00000233d2471900] PSNR y:47.541604 u:51.546326 v:51.807892 average:48.536017 min:34.743657 max:inf
[out#0/null @ 00000233cb8933c0] video:14445KiB audio:262912KiB subtitle:0KiB other streams:0KiB global headers:0KiB muxing overhead: unknown
frame=33618 fps=440 q=-0.0 Lsize=N/A time=00:23:22.15 bitrate=N/A speed=18.3x    
